<?xml version="1.0" encoding="UTF-8"?> <svg xmlns="http://www.w3.org/2000/svg" xmlns:xlink="http://www.w3.org/1999/xlink" width="551" height="476" viewBox="0 0 551 476"> <defs> <path id="a" d="M.67.042h439.246V220.15H.67z"></path> <path id="c" d="M0 .592h107.745v125.143H0z"></path> </defs> <g fill="none" fill-rule="evenodd"> <g transform="translate(111 7)"> <mask id="b" fill="#fff"> <use xlink:href="#a"></use> </mask> <path stroke="#BD1823" stroke-width="8" d="M.67 140.625h30.153L49.667 205.1 64.744.042l16.96 173.076 20.73-32.493h35.807l35.806-38.054 28.267 38.054h62.342l26.966-27.708 11.561 27.708h41.892l9.556 79.525L370.58 7.568l24.107 193.261 17.94-60.204h27.288" mask="url(#b)"></path> </g> <path fill="#2C374B" d="M110.53 277L94 265.574 116.479 233 133 244.444z"></path> <path fill="#9B999A" d="M222.827 97.285c38.56 26.628 48.21 79.45 21.571 117.982-26.636 38.532-79.507 48.184-118.054 21.562-38.56-26.616-48.211-79.448-21.569-117.984 26.62-38.533 79.482-48.18 118.052-21.56m-132.52 11.58c-32.154 46.507-20.5 110.29 26.045 142.43 46.53 32.135 110.348 20.48 142.502-26.047 32.157-46.503 20.503-110.28-26.041-142.416-46.538-32.148-110.349-20.479-142.506 26.033"></path> <path fill="#C6C4C6" d="M165.3 84.595c-45.801 5.361-78.686 46.95-73.326 92.712 5.367 45.778 46.982 78.65 92.784 73.285 45.79-5.362 78.68-46.955 73.31-92.732-5.364-45.762-46.978-78.625-92.767-73.265m-.478-4.09c48.041-5.626 91.7 28.876 97.327 76.875 5.623 48.023-28.873 91.65-76.92 97.274-48.044 5.63-91.7-28.852-97.33-76.868-5.626-48.004 28.874-91.652 76.923-97.281"></path> <path fill="#EB6527" d="M114.184 298.867c.825-1.32 1.288-2.065 1.288-2.065s1.46-3.845 1.477-9.162c.225-8.037-3.444-16.028-10.538-20.97-.004-.002-.007 0-.012-.003l-.012-.007c-7.092-4.944-15.86-5.62-23.332-2.62-4.977 1.854-8.086 4.555-8.086 4.555s-.82 1.06-2.28 2.938c.166.09.356.102.51.21l40.985 27.124z"></path> <g transform="translate(0 280.265)"> <mask id="d" fill="#fff"> <use xlink:href="#c"></use> </mask> <path fill="#EB6527" d="M52.699 116.259a18.447 18.447 0 0 0 2.36-2.79c.202-.276.426-.523.621-.8.182-.268.302-.55.477-.821.415-.636.834-1.268 1.188-1.923 8.953-14.462 36.752-59.084 50.4-80.99L66.48 1.625c-.421-.28-.702-.674-1.03-1.033-16.02 20.63-47.637 61.341-57.996 74.581-.487.565-.936 1.18-1.39 1.788-.192.256-.42.467-.603.732-.195.278-.355.575-.536.858a18.705 18.705 0 0 0-1.801 3.18c-4.131 8.396-4.082 18.02-.336 26.198.042.09.073.177.116.262a31.406 31.406 0 0 0 2.414 4.213c.112.16.221.316.34.474a29.277 29.277 0 0 0 3.095 3.718c.13.132.274.26.411.392 1.202 1.17 2.482 2.282 3.906 3.272.005.002.005.005.013.008.004 0 .007.003.011.005 1.423.99 2.911 1.813 4.426 2.533.174.079.338.17.512.247 1.488.67 3.01 1.201 4.558 1.619.185.051.373.1.561.152 1.585.393 3.183.669 4.792.803.091.01.187.01.279.02 8.974.683 18.028-2.607 24.478-9.388" mask="url(#d)"></path> </g> <path fill="#2C374B" d="M107.746 309.2c2.883-4.625 5.132-8.231 6.438-10.334l-40.985-27.123c-.154-.108-.344-.121-.51-.21-1.66 2.14-4.172 5.374-7.24 9.324.329.359.608.752 1.03 1.031l41.267 27.313z"></path> <g> <path fill="#4089C8" d="M449 218.5c0 22.918-18.582 41.5-41.501 41.5C384.582 260 366 241.418 366 218.5c0-22.92 18.582-41.5 41.499-41.5 22.92 0 41.501 18.58 41.501 41.5"></path> <path fill="#EA6624" d="M379 306c0 24.3-19.703 44-43.999 44C310.703 350 291 330.3 291 306s19.703-44 44.001-44C359.297 262 379 281.7 379 306"></path> <path fill="#2C5074" d="M279.001 88C254.703 88 235 68.3 235 44s19.703-44 44.001-44C303.297 0 323 19.7 323 44s-19.703 44-43.999 44z"></path> <path fill="#253C7F" d="M537 101.5c0 14.082-11.418 25.5-25.499 25.5C497.418 127 486 115.582 486 101.5S497.418 76 511.501 76C525.582 76 537 87.418 537 101.5"></path> <path fill="#BC202E" d="M250 309c0 17.12-13.88 31-31.001 31C201.88 340 188 326.12 188 309c0-17.12 13.88-31 30.999-31 17.12 0 31.001 13.88 31.001 31"></path> <path fill="#F79521" d="M316 422.501C316 452.05 292.27 476 263.003 476 233.734 476 210 452.05 210 422.501 210 392.954 233.734 369 263.003 369 292.27 369 316 392.954 316 422.501"></path> <path fill="#FEFEFE" d="M240.187 431.705h44.62v-31.419h-44.62v31.42zM237.095 394H291v44h-57v-44h3.095z"></path> <path fill="#FEFEFE" d="M255.091 435h16.678v10.08H279V451h-31v-5.92h7.091zM251 410l10.49 13.418 2.102-3.882L271.81 424l2.19-4.26-8.125-4.41 2.03-3.747z"></path> <path fill="#BC202E" d="M480.5 362c-22.364 0-40.5-18.36-40.5-41 0-22.649 18.136-41 40.5-41 22.367 0 40.5 18.351 40.5 41 0 22.64-18.133 41-40.5 41z"></path> <path fill="#FEFEFE" d="M488.84 320.331a2.32 2.32 0 0 1-2.314-2.323 2.31 2.31 0 1 1 4.623 0 2.318 2.318 0 0 1-2.309 2.323m-8.341 0a2.316 2.316 0 0 1-2.309-2.323 2.31 2.31 0 1 1 4.617 0 2.316 2.316 0 0 1-2.308 2.323m-8.337 0a2.316 2.316 0 0 1-2.308-2.323 2.31 2.31 0 1 1 4.617 0 2.316 2.316 0 0 1-2.309 2.323M494.61 305h-28.223c-2.977 0-5.387 2.422-5.387 5.413v14.938c0 2.986 2.41 5.41 5.387 5.41h4.458L465.201 339l16.42-8.233 12.99-.006c2.98 0 5.389-2.424 5.389-5.41v-14.938c0-2.991-2.41-5.413-5.39-5.413"></path> <path fill="#253C7F" d="M409.999 464C390.67 464 375 448.325 375 428.999 375 409.672 390.67 394 409.999 394 429.335 394 445 409.672 445 428.999 445 448.325 429.335 464 409.999 464z"></path> <path fill="#1F5EA4" d="M249.999 250C230.67 250 215 234.325 215 214.999 215 195.672 230.67 180 249.999 180 269.335 180 285 195.672 285 214.999 285 234.325 269.335 250 249.999 250z"></path> <path fill="#FEFEFE" d="M433 425l-6.798 19H393l6.79-19z"></path> <path fill="#FEFEFE" d="M397.596 423.695l.385-1.113H427v-3.537h-12.256L410.286 414h-16.112L392 419.045V440zM251.115 230.375c-2.33-.272-3.612-.764-3.612-.764-1.677-.578-2.746-.446-2.746-.446-2.389-.033-3.972 1.835-3.972 1.835l-2.565-5.758c5.734-4.179 4.835-9.538 4.835-9.538l-5.003.058-.052-5.247 3.805-.041c-1.207-2.193-1.111-4.044-1.111-4.044-.289-10.196 9.347-11.255 9.347-11.255.236-.036.461-.063.684-.085h.003c10.6-1.147 11.568 9.073 11.568 9.073l-7.197 1.095c-.745-3.057-3.51-3.03-4.289-2.958-.134.014-.209.025-.209.025-4.813 1.244-1.94 7.888-1.94 7.888l2.232-.022h.003l4.794-.05.06 5.304-4.797.055h-.005l-1.158.014c.399 3.81-2.061 7.42-2.061 7.42 1.02.542 2.155.905 3.318 1.133v.003c4.918.968 10.394-.457 10.394-.457L264 229.07c-5.591 1.637-10.028 1.634-12.885 1.306M420.997 226.628c.008-.288 0-.577-.025-.853v-6.187a2.082 2.082 0 0 0-2.081-2.083c-1.148 0-2.088.93-2.088 2.083v.474a7.668 7.668 0 0 0-.552-.18v-3.129a2.087 2.087 0 1 0-4.175 0v1.796c-.185-.065-.368-.133-.556-.199v-3.423a2.086 2.086 0 0 0-4.172 0v2.652a4.974 4.974 0 0 0-.571.136v-9.64a2.078 2.078 0 0 0-2.082-2.075c-1.153 0-2.085.93-2.085 2.074v17.183c-.456-.989-.467-2.243-.674-3.17-.763-3.513-2.721-4.944-3.915-4.57-.282.087-2.407.888-1.96 1.856.28.591 1.727 3.938 1.891 7.56.126 2.59 1.757 5.177 3.42 7.161.146.29.323.56.564.79l2.98 2.923V245h14.021v-7.379c1.087-1.651 1.779-3.688 1.86-5.53l.197-5.38c.003-.017-.005-.03 0-.053l.003-.03"></path> <path fill="#FEFEFE" d="M391.45 227.916h37.102v-27.832h-37.101v27.832zM388.174 214c0-.51.411-.921.919-.921a.919.919 0 1 1 0 1.839.917.917 0 0 1-.92-.918zM433 229.709v-31.423a2.292 2.292 0 0 0-2.29-2.286h-41.417a2.294 2.294 0 0 0-2.293 2.286v31.423a2.296 2.296 0 0 0 2.293 2.291h41.416c1.26 0 2.291-1.024 2.291-2.291zM359.375 290h-46.754c-.627 0-1.192.264-1.621.686l23.29 20.687c.944.836 2.476.836 3.42 0L361 290.686a2.308 2.308 0 0 0-1.625-.686"></path> <path fill="#FEFEFE" d="M358.87 321.813a.964.964 0 0 1-.728.326.982.982 0 0 1-.691-.288l-11.157-11.081a1.084 1.084 0 0 1-.036-1.483.975.975 0 0 1 1.418-.039l11.16 11.082c.402.397.414 1.063.033 1.483zm-34.164-11.043l-11.157 11.081a.972.972 0 0 1-.69.288.996.996 0 0 1-.735-.326 1.09 1.09 0 0 1 .04-1.483l11.157-11.082a.976.976 0 0 1 1.421.039c.381.416.366 1.079-.036 1.483zm12.605 3.615c-1.004.862-2.621.862-3.62 0L310 294v27.505c0 1.377 1.071 2.495 2.392 2.495h46.21c1.323 0 2.398-1.118 2.398-2.495V294l-23.689 20.385zM295.738 59.603c-.684 0-1.238-.578-1.238-1.292 0-.715.554-1.293 1.238-1.293.69 0 1.244.578 1.244 1.293 0 .714-.555 1.292-1.244 1.292zm-3.273 0c-.686 0-1.244-.578-1.244-1.292 0-.715.558-1.293 1.244-1.293.687 0 1.241.578 1.241 1.293 0 .714-.554 1.292-1.24 1.292zm-3.275 0c-.687 0-1.244-.578-1.244-1.292 0-.715.557-1.293 1.244-1.293.686 0 1.24.578 1.24 1.293 0 .714-.554 1.292-1.24 1.292zm-26.853 2.522h4.903v-5.107h-4.903v5.107zM298.407 55h-37.808a.61.61 0 0 0-.599.62v7.76c0 .343.266.62.599.62h37.808c.33 0 .593-.277.593-.62v-7.76c0-.34-.264-.62-.593-.62zM295.738 48.603c-.684 0-1.238-.578-1.238-1.292 0-.715.554-1.293 1.238-1.293.69 0 1.244.578 1.244 1.293 0 .714-.555 1.292-1.244 1.292zm-3.273 0c-.686 0-1.244-.578-1.244-1.292 0-.715.558-1.293 1.244-1.293.687 0 1.241.578 1.241 1.293 0 .714-.554 1.292-1.24 1.292zm-3.275 0c-.687 0-1.244-.578-1.244-1.292 0-.715.557-1.293 1.244-1.293.686 0 1.24.578 1.24 1.293 0 .714-.554 1.292-1.24 1.292zm-26.853 2.522h4.903v-5.107h-4.903v5.107zM298.407 44h-37.808a.608.608 0 0 0-.599.62v7.76c0 .343.266.62.599.62h37.808c.33 0 .593-.277.593-.62v-7.76a.606.606 0 0 0-.593-.62zM295.738 38.603c-.684 0-1.238-.58-1.238-1.292 0-.715.554-1.295 1.238-1.295.69 0 1.244.58 1.244 1.295 0 .712-.555 1.292-1.244 1.292zm-3.273 0c-.686 0-1.244-.58-1.244-1.292 0-.715.558-1.295 1.244-1.295.687 0 1.241.58 1.241 1.295 0 .712-.554 1.292-1.24 1.292zm-3.275 0c-.687 0-1.244-.58-1.244-1.292 0-.715.557-1.295 1.244-1.295.686 0 1.24.58 1.24 1.295 0 .712-.554 1.292-1.24 1.292zm-26.853 2.519h4.903v-5.106h-4.903v5.106zM298.407 34h-37.808a.608.608 0 0 0-.599.62v7.76c0 .34.266.62.599.62h37.808c.33 0 .593-.28.593-.62v-7.76a.606.606 0 0 0-.593-.62zM295.738 27.603c-.684 0-1.238-.578-1.238-1.292 0-.715.554-1.293 1.238-1.293.69 0 1.244.578 1.244 1.293 0 .714-.555 1.292-1.244 1.292zm-3.273 0c-.686 0-1.244-.578-1.244-1.292 0-.715.558-1.293 1.244-1.293.687 0 1.241.578 1.241 1.293 0 .714-.554 1.292-1.24 1.292zm-3.275 0c-.687 0-1.244-.578-1.244-1.292 0-.715.557-1.293 1.244-1.293.686 0 1.24.578 1.24 1.293 0 .714-.554 1.292-1.24 1.292zm-26.853 2.522h4.903v-5.107h-4.903v5.107zM298.407 23h-37.808a.608.608 0 0 0-.599.62v7.76c0 .343.266.62.599.62h37.808c.33 0 .593-.277.593-.62v-7.76a.606.606 0 0 0-.593-.62zM219.499 314.056c-5.012 0-9.078-3.938-9.078-8.8 0-4.857 4.066-8.793 9.078-8.793 5.014 0 9.077 3.936 9.077 8.793 0 4.862-4.063 8.8-9.077 8.8m0-21.056c-6.9 0-12.499 5.61-12.499 12.534 0 6.921 9.562 19.466 12.499 19.466 3.399 0 12.501-12.545 12.501-19.466 0-6.924-5.597-12.534-12.501-12.534M507.999 110a3 3 0 1 0 .002 6.001 3 3 0 0 0-.002-6.001M518.001 110a3 3 0 1 0-.003 5.999A3 3 0 0 0 518 110M504.523 94.358a.62.62 0 0 0-.075.005l-.758-3.509a1.038 1.038 0 0 0-.726-.778l-3.64-1.035a1.038 1.038 0 0 0-1.284.71c-.156.55.16 1.125.715 1.283l3.034.866 3.508 16.239c.102.475.524.818 1.01.818l14.443.043h.003a1.038 1.038 0 0 0 .005-2.074l-13.606-.04-.438-2.02 14.977.003a.866.866 0 0 0 .866-.864L524 96.372l-19.477-2.014z"></path> </g> </g> </svg> 